<?xml version="1.0" encoding="UTF-8"?>
<!DOCTYPE svg PUBLIC "-//W3C//DTD SVG 1.1//EN" "http://www.w3.org/Graphics/SVG/1.1/DTD/svg11.dtd">
<!-- Creator: CorelDRAW 2021 (64-Bit) -->
<svg xmlns="http://www.w3.org/2000/svg" xml:space="preserve" width="512px" height="512px" version="1.1" style="shape-rendering:geometricPrecision; text-rendering:geometricPrecision; image-rendering:optimizeQuality; fill-rule:evenodd; clip-rule:evenodd"
viewBox="0 0 515.68 515.67"
 xmlns:xlink="http://www.w3.org/1999/xlink"
 xmlns:xodm="http://www.corel.com/coreldraw/odm/2003">
 <defs>
  <style type="text/css">
   <![CDATA[
    .fil5 {fill:#1C83B4}
    .fil10 {fill:#359AD5}
    .fil1 {fill:#4FADE1}
    .fil6 {fill:#759A49}
    .fil11 {fill:#88AD4A}
    .fil2 {fill:#9CC54A}
    .fil4 {fill:#A8833D}
    .fil8 {fill:#C7393B}
    .fil0 {fill:#DC3B42}
    .fil9 {fill:#E1A838}
    .fil7 {fill:#EF4E46}
    .fil3 {fill:#EFBB33}
   ]]>
  </style>
 </defs>
 <g id="Layer_x0020_1">
  <metadata id="CorelCorpID_0Corel-Layer"/>
  <path class="fil0" d="M347.73 179.78c0,11.02 -1.32,22.39 -3.91,34.12 -17.15,-3.91 -41.32,-7.46 -72.03,-7.46 -14.87,0 -35.13,1.57 -47.61,3.75 2.84,6.96 6.34,14.58 10.56,22.8 11.06,-1.42 25.94,-2.44 37.05,-2.44 27.82,0 49.7,3.15 65.33,6.6 -5.58,15.9 -13.4,32.55 -23.55,50.12 -10.51,18.28 -26.55,42.3 -38.73,55.56 3.55,2.79 13.6,10.2 18.98,12.49 13.4,-14.53 29.24,-36.16 40.66,-55.96 22.69,-39.3 34.88,-75.05 37.06,-108.72 -7.31,-4.97 -18.27,-9.24 -23.81,-10.87l0 0.01z"/>
  <path class="fil1" d="M293.16 291.44c7.47,-12.85 16.2,-31.23 20.56,-43.11 -7.46,-0.97 -15.83,-1.78 -25.07,-2.24 -4.27,10.31 -10.81,23.67 -16.4,33.26 -13.91,24.17 -27.56,41.54 -38.32,53.37 -11.02,-12.85 -21.53,-27.93 -31.63,-45.49 -10.56,-18.23 -23.35,-44.13 -28.73,-61.35 -4.26,1.73 -15.63,6.71 -20.35,10.26 5.94,18.84 16.75,43.37 28.17,63.17 22.64,39.3 47.51,67.74 75.58,86.43 7.97,-3.81 17.11,-11.17 21.32,-15.19 -9.54,-5.48 -18.73,-12.29 -27.61,-20.41 11.93,-12.9 27.16,-32.04 42.49,-58.7l-0.01 0z"/>
  <path class="fil2" d="M208.85 267.47c7.46,12.9 18.93,29.61 27.05,39.35 4.62,-5.94 9.5,-12.79 14.52,-20.56 -6.8,-8.89 -15.07,-21.23 -20.66,-30.88 -13.91,-24.12 -22.13,-44.63 -27,-59.86 16.6,-3.15 34.97,-4.67 55.18,-4.67 21.11,0 49.95,1.87 67.51,5.78 0.61,-4.51 1.98,-16.85 1.32,-22.74 -19.29,-4.32 -45.94,-7.21 -68.83,-7.21 -45.33,0 -82.34,7.31 -112.59,22.29 -0.66,8.78 1.11,20.41 2.43,26.05 9.6,-5.54 20.06,-10.11 31.53,-13.71 5.23,16.8 14.16,39.56 29.54,66.16l0 0z"/>
  <path class="fil3" d="M498.14 284.58c-23.45,-23.4 -61.42,-23.4 -84.82,0 -3.25,3.31 -6.09,6.86 -8.43,10.62 -0.96,1.82 -2.03,3.65 -3.05,5.43 -35.48,62.51 -85.68,105.06 -144.01,108.41l0 0.2c18.89,27.98 18.89,64.95 0,92.98 -2.18,3.2 -4.57,6.3 -7.26,9.24 83.71,-17.62 137.31,-71.85 164.12,-140.81 15.94,15.03 38.07,19.66 57.82,13.92 2.23,-0.66 4.36,-1.43 6.49,-2.34 6.96,-2.89 13.46,-7.21 19.14,-12.85 22.13,-22.14 23.3,-57.27 3.6,-80.84 -1.11,-1.37 -2.33,-2.69 -3.6,-3.96l0 0z"/>
  <path class="fil4" d="M414.69 370.65c15.94,15.03 38.07,19.66 57.82,13.92 2.23,-0.66 4.36,-1.43 6.49,-2.34 6.96,-2.89 13.46,-7.21 19.14,-12.85 22.13,-22.14 23.3,-57.27 3.61,-80.84 -1.12,-1.37 -2.34,-2.69 -3.61,-3.96 -8.17,-8.12 -18.02,-13.4 -28.43,-15.89 18.18,4.98 31.07,21.17 31.83,40.06 0.71,18.84 -10.86,36.01 -28.68,42.4 -17.76,6.35 -37.61,0.46 -49.03,-14.57 -4.17,16.2 -4.52,17.72 -9.14,34.07l0 0z"/>
  <path class="fil1" d="M231.08 498.11c23.4,-23.41 23.4,-61.34 0,-84.8 -3.25,-3.25 -6.85,-6.05 -10.56,-8.43 -1.87,-1.02 -3.7,-1.98 -5.48,-3.05 -62.54,-35.49 -105.07,-85.66 -108.37,-144.01l-0.21 0c-28.02,18.89 -64.97,18.89 -92.99,0 -3.25,-2.13 -6.35,-4.57 -9.29,-7.21 17.66,83.68 71.88,137.26 140.81,164.07 -15.02,15.94 -19.65,38.08 -13.86,57.83 0.61,2.19 1.42,4.37 2.29,6.5 2.94,6.96 7.2,13.46 12.89,19.1 22.13,22.14 57.26,23.35 80.81,3.6 1.37,-1.12 2.69,-2.34 3.96,-3.6l0 0z"/>
  <path class="fil5" d="M144.99 414.68c-15.02,15.94 -19.65,38.08 -13.86,57.84 0.61,2.18 1.42,4.36 2.29,6.49 2.94,6.96 7.2,13.46 12.89,19.1 22.13,22.14 57.26,23.36 80.81,3.6 1.37,-1.11 2.69,-2.33 3.96,-3.6 8.12,-8.13 13.46,-18.03 15.94,-28.44 -5.02,18.23 -21.22,31.13 -40.1,31.84 -18.88,0.71 -36.04,-10.87 -42.39,-28.64 -6.34,-17.77 -0.45,-37.63 14.57,-49.05 -16.19,-4.17 -17.71,-4.52 -34.11,-9.14l0 0z"/>
  <path class="fil2" d="M17.58 231.06c23.4,23.41 61.37,23.41 84.77,0 3.25,-3.25 6.09,-6.8 8.43,-10.56 1.01,-1.83 2.03,-3.65 3.04,-5.43 35.54,-62.51 85.69,-105.11 144.02,-108.41l0 -0.21c-18.89,-28.02 -18.89,-64.94 0,-92.97 2.18,-3.2 4.56,-6.3 7.2,-9.24 -83.65,17.57 -137.26,71.85 -164.01,140.76 -15.94,-14.98 -38.07,-19.61 -57.87,-13.87 -2.18,0.61 -4.36,1.42 -6.49,2.29 -6.96,2.94 -13.46,7.21 -19.09,12.9 -22.19,22.14 -23.35,57.27 -3.61,80.83 1.12,1.33 2.29,2.64 3.61,3.92l0 -0.01z"/>
  <path class="fil6" d="M101.03 145c-15.94,-14.98 -38.07,-19.61 -57.87,-13.87 -2.18,0.61 -4.37,1.42 -6.5,2.29 -6.95,2.94 -13.45,7.21 -19.08,12.9 -22.19,22.14 -23.35,57.27 -3.61,80.83 1.12,1.33 2.29,2.64 3.61,3.92 8.12,8.12 17.97,13.45 28.37,15.94 -18.17,-4.98 -31.06,-21.17 -31.83,-40.06 -0.71,-18.89 10.87,-36.06 28.69,-42.4 17.76,-6.4 37.61,-0.46 49.03,14.57 4.16,-16.2 4.52,-17.72 9.19,-34.12l0 0z"/>
  <path class="fil7" d="M284.59 17.59c-23.41,23.41 -23.41,61.34 0,84.75 3.3,3.3 6.85,6.09 10.6,8.48 1.83,0.97 3.66,1.98 5.44,3 62.53,35.54 105.07,85.71 108.42,144l0.21 0c27.97,-18.84 64.92,-18.84 92.94,0 3.25,2.19 6.35,4.57 9.29,7.27 -17.61,-83.69 -71.88,-137.31 -140.81,-164.07 15.02,-15.94 19.64,-38.08 13.91,-57.84 -0.66,-2.23 -1.48,-4.41 -2.34,-6.5 -2.94,-6.95 -7.21,-13.45 -12.84,-19.09 -22.19,-22.19 -57.31,-23.36 -80.87,-3.65 -1.37,1.16 -2.69,2.38 -3.96,3.65l0.01 0z"/>
  <path class="fil8" d="M370.68 101.02c15.02,-15.94 19.64,-38.08 13.91,-57.84 -0.66,-2.23 -1.48,-4.41 -2.34,-6.5 -2.94,-6.95 -7.21,-13.45 -12.84,-19.09 -22.19,-22.19 -57.31,-23.36 -80.87,-3.65 -1.37,1.16 -2.69,2.38 -3.96,3.65 -8.12,8.13 -13.4,17.98 -15.93,28.44 5.02,-18.23 21.21,-31.13 40.1,-31.84 18.88,-0.76 36.04,10.87 42.38,28.64 6.35,17.77 0.51,37.62 -14.57,49.05 16.2,4.17 17.72,4.52 34.12,9.14l0 0z"/>
  <path class="fil9" d="M272 456.17c71.98,-21.13 111.67,-83.23 131.37,-158.28 -0.51,0.91 -1.01,1.83 -1.52,2.74 -35.49,62.51 -85.69,105.06 -144.01,108.41l0 0.21c9.49,14.11 14.21,30.51 14.16,46.92z"/>
  <path class="fil10" d="M59.56 271.99c21.06,71.95 83.15,111.66 158.22,131.42 -0.91,-0.51 -1.82,-1.02 -2.74,-1.58 -62.54,-35.49 -105.07,-85.66 -108.37,-144.01l-0.21 0c-14.16,9.55 -30.56,14.27 -46.9,14.17z"/>
  <path class="fil11" d="M243.67 59.53c-71.93,21.08 -111.68,83.18 -131.42,158.23 0.56,-0.92 1.06,-1.83 1.57,-2.69 35.54,-62.51 85.69,-105.11 144.01,-108.41l0 -0.21c-9.49,-14.11 -14.21,-30.51 -14.16,-46.92z"/>
  <path class="fil0" d="M456.01 242.79c-20.97,-71.64 -82.79,-111.15 -157.52,-130.8 0.92,0.51 1.83,1.06 2.69,1.52 62.24,35.34 104.57,85.31 107.92,143.35l0.21 0c14.01,-9.5 30.35,-14.17 46.7,-14.07l0 0z"/>
 </g>
</svg>
