<?xml version="1.0" encoding="UTF-8"?>
<!DOCTYPE svg PUBLIC "-//W3C//DTD SVG 1.1//EN" "http://www.w3.org/Graphics/SVG/1.1/DTD/svg11.dtd">
<!-- Creator: CorelDRAW 2021 (64-Bit) -->
<svg xmlns="http://www.w3.org/2000/svg" xml:space="preserve" width="1024px" height="1024px" version="1.1" style="shape-rendering:geometricPrecision; text-rendering:geometricPrecision; image-rendering:optimizeQuality; fill-rule:evenodd; clip-rule:evenodd"
viewBox="0 0 1027.67 1027.67"
 xmlns:xlink="http://www.w3.org/1999/xlink"
 xmlns:xodm="http://www.corel.com/coreldraw/odm/2003">
 <defs>
  <style type="text/css">
   <![CDATA[
    .fil5 {fill:#1C83B4}
    .fil10 {fill:#359AD5}
    .fil1 {fill:#4FADE1}
    .fil6 {fill:#759A49}
    .fil11 {fill:#88AD4A}
    .fil2 {fill:#9CC54A}
    .fil4 {fill:#A8833D}
    .fil8 {fill:#C7393B}
    .fil0 {fill:#DC3B42}
    .fil9 {fill:#E1A838}
    .fil7 {fill:#EF4E46}
    .fil3 {fill:#EFBB33}
   ]]>
  </style>
 </defs>
 <g id="Layer_x0020_1">
  <metadata id="CorelCorpID_0Corel-Layer"/>
  <path class="fil0" d="M692.98 358.27c0,21.96 -2.64,44.63 -7.79,68 -34.2,-7.79 -82.35,-14.87 -143.55,-14.87 -29.64,0 -70.01,3.13 -94.89,7.48 5.66,13.87 12.64,29.05 21.04,45.44 22.05,-2.84 51.69,-4.86 73.85,-4.86 55.43,0 99.03,6.28 130.19,13.16 -11.12,31.67 -26.7,64.87 -46.94,99.88 -20.94,36.43 -52.91,84.29 -77.18,110.7 7.08,5.57 27.11,20.35 37.83,24.9 26.71,-28.94 58.27,-72.05 81.03,-111.52 45.22,-78.33 69.5,-149.57 73.85,-216.66 -14.57,-9.92 -36.42,-18.42 -47.44,-21.66l0 0.01z"/>
  <path class="fil1" d="M584.23 580.8c14.87,-25.6 32.27,-62.23 40.97,-85.91 -14.87,-1.93 -31.56,-3.55 -49.97,-4.46 -8.5,20.54 -21.55,47.16 -32.68,66.28 -27.72,48.17 -54.93,82.78 -76.37,106.36 -21.96,-25.6 -42.9,-55.66 -63.03,-90.67 -21.04,-36.33 -46.53,-87.94 -57.25,-122.24 -8.5,3.44 -31.16,13.36 -40.56,20.44 11.83,37.54 33.38,86.42 56.14,125.89 45.11,78.32 94.68,134.99 150.62,172.23 15.89,-7.59 34.1,-22.26 42.49,-30.26 -19.01,-10.93 -37.33,-24.49 -55.03,-40.68 23.78,-25.7 54.12,-63.85 84.67,-116.98l0 0z"/>
  <path class="fil2" d="M416.2 533.03c14.87,25.71 37.74,59 53.92,78.43 9.21,-11.84 18.92,-25.5 28.93,-40.99 -13.55,-17.7 -30.04,-42.29 -41.17,-61.52 -27.72,-48.07 -44.11,-88.95 -53.82,-119.31 33.08,-6.28 69.7,-9.31 109.97,-9.31 42.08,0 99.54,3.74 134.54,11.54 1.22,-9.01 3.94,-33.6 2.63,-45.34 -38.44,-8.6 -91.55,-14.37 -137.17,-14.37 -90.34,0 -164.08,14.57 -224.37,44.43 -1.32,17.51 2.22,40.68 4.85,51.91 19.12,-11.03 39.96,-20.14 62.82,-27.32 10.42,33.49 28.22,78.83 58.88,131.85l-0.01 0z"/>
  <path class="fil3" d="M992.71 567.14c-46.73,-46.65 -122.4,-46.65 -169.04,0 -6.47,6.58 -12.14,13.66 -16.79,21.15 -1.92,3.64 -4.04,7.28 -6.07,10.82 -70.71,124.57 -170.76,209.38 -286.99,216.05l0 0.41c37.63,55.76 37.63,129.43 0,185.29 -4.35,6.37 -9.11,12.54 -14.47,18.42 166.82,-35.12 273.64,-143.2 327.05,-280.62 31.77,29.96 75.87,39.17 115.23,27.73 4.45,-1.32 8.7,-2.83 12.94,-4.66 13.86,-5.76 26.81,-14.36 38.14,-25.6 44.11,-44.12 46.43,-114.15 7.18,-161.1 -2.22,-2.73 -4.65,-5.36 -7.18,-7.9l0 0.01z"/>
  <path class="fil4" d="M826.41 738.66c31.76,29.96 75.87,39.17 115.22,27.73 4.45,-1.32 8.7,-2.83 12.95,-4.66 13.86,-5.76 26.81,-14.36 38.13,-25.6 44.11,-44.12 46.44,-114.15 7.19,-161.1 -2.23,-2.73 -4.66,-5.36 -7.19,-7.9 -16.28,-16.18 -35.91,-26.71 -56.65,-31.67 36.22,9.92 61.91,42.2 63.43,79.84 1.42,37.55 -21.65,71.75 -57.15,84.5 -35.41,12.65 -74.96,0.92 -97.73,-29.04 -8.29,32.28 -9,35.31 -18.21,67.9l0.01 0z"/>
  <path class="fil1" d="M460.51 992.66c46.63,-46.65 46.63,-122.24 0,-168.99 -6.48,-6.48 -13.66,-12.05 -21.04,-16.8 -3.74,-2.03 -7.39,-3.95 -10.93,-6.08 -124.63,-70.73 -209.4,-170.71 -215.97,-286.98l-0.41 0c-55.84,37.64 -129.48,37.64 -185.32,0 -6.48,-4.25 -12.65,-9.11 -18.52,-14.37 35.21,166.76 143.25,273.52 280.62,326.96 -29.94,31.77 -39.15,75.89 -27.62,115.26 1.22,4.35 2.84,8.7 4.56,12.95 5.86,13.86 14.36,26.82 25.69,38.05 44.11,44.12 114.11,46.55 161.05,7.18 2.73,-2.22 5.36,-4.65 7.89,-7.18l0 0z"/>
  <path class="fil5" d="M288.94 826.4c-29.94,31.77 -39.15,75.9 -27.62,115.26 1.22,4.35 2.84,8.7 4.56,12.95 5.86,13.87 14.36,26.82 25.69,38.05 44.11,44.12 114.11,46.55 161.05,7.19 2.73,-2.23 5.36,-4.66 7.89,-7.19 16.19,-16.19 26.81,-35.92 31.76,-56.67 -10.01,36.33 -42.28,62.03 -79.91,63.45 -37.63,1.42 -71.83,-21.65 -84.47,-57.07 -12.64,-35.42 -0.91,-74.99 29.03,-97.76 -32.27,-8.3 -35.3,-9 -67.98,-18.21l0 0z"/>
  <path class="fil2" d="M35.03 460.48c46.63,46.65 122.3,46.65 168.94,0 6.47,-6.48 12.14,-13.56 16.79,-21.05 2.02,-3.64 4.05,-7.28 6.07,-10.83 70.81,-124.57 170.76,-209.47 286.99,-216.05l0 -0.4c-37.63,-55.86 -37.63,-129.43 0,-185.29 4.36,-6.38 9.11,-12.55 14.37,-18.42 -166.71,35.02 -273.54,143.19 -326.85,280.51 -31.76,-29.85 -75.87,-39.06 -115.33,-27.62 -4.35,1.21 -8.69,2.83 -12.94,4.55 -13.86,5.87 -26.81,14.37 -38.04,25.71 -44.21,44.12 -46.53,114.14 -7.18,161.1 2.22,2.63 4.55,5.26 7.18,7.79l0 0z"/>
  <path class="fil6" d="M201.34 288.95c-31.77,-29.85 -75.88,-39.06 -115.33,-27.62 -4.35,1.21 -8.7,2.83 -12.95,4.55 -13.85,5.87 -26.8,14.37 -38.03,25.71 -44.21,44.12 -46.54,114.14 -7.18,161.1 2.22,2.63 4.55,5.26 7.18,7.79 16.18,16.19 35.81,26.82 56.55,31.78 -36.22,-9.92 -61.91,-42.2 -63.43,-79.85 -1.42,-37.64 21.65,-71.85 57.15,-84.49 35.41,-12.75 74.96,-0.92 97.73,29.04 8.29,-32.28 9,-35.32 18.31,-68l0 -0.01z"/>
  <path class="fil7" d="M567.13 35.06c-46.63,46.65 -46.63,122.24 0,168.89 6.58,6.58 13.66,12.14 21.14,16.9 3.65,1.92 7.29,3.95 10.83,5.97 124.63,70.84 209.4,170.82 216.08,286.99l0.4 0c55.74,-37.55 129.38,-37.55 185.22,0 6.48,4.35 12.65,9.1 18.52,14.47 -35.1,-166.77 -143.25,-273.63 -280.62,-326.96 29.94,-31.78 39.15,-75.9 27.72,-115.26 -1.32,-4.46 -2.94,-8.81 -4.66,-12.95 -5.86,-13.87 -14.36,-26.82 -25.59,-38.05 -44.21,-44.23 -114.21,-46.55 -161.15,-7.29 -2.73,2.33 -5.36,4.76 -7.89,7.29l0 0z"/>
  <path class="fil8" d="M738.7 201.32c29.94,-31.78 39.15,-75.9 27.72,-115.26 -1.32,-4.46 -2.94,-8.81 -4.66,-12.95 -5.86,-13.87 -14.36,-26.82 -25.59,-38.05 -44.21,-44.23 -114.21,-46.55 -161.15,-7.29 -2.73,2.33 -5.36,4.76 -7.89,7.29 -16.18,16.19 -26.71,35.82 -31.76,56.67 10.01,-36.33 42.28,-62.04 79.91,-63.46 37.63,-1.51 71.83,21.66 84.47,57.08 12.65,35.42 1.01,74.98 -29.03,97.76 32.27,8.29 35.3,9 67.98,18.21l0 0z"/>
  <path class="fil9" d="M542.05 909.08c143.44,-42.1 222.55,-165.86 261.8,-315.43 -1.01,1.83 -2.02,3.65 -3.03,5.47 -70.72,124.57 -170.76,209.37 -287,216.05l0 0.4c18.92,28.13 28.33,60.82 28.23,93.51z"/>
  <path class="fil10" d="M118.69 542.04c41.98,143.39 165.7,222.53 315.32,261.9 -1.83,-1.02 -3.65,-2.03 -5.47,-3.14 -124.63,-70.74 -209.4,-170.72 -215.97,-286.99l-0.41 0c-28.22,19.02 -60.9,28.43 -93.47,28.23z"/>
  <path class="fil11" d="M485.6 118.64c-143.35,42 -222.56,165.76 -261.91,315.32 1.12,-1.82 2.12,-3.64 3.14,-5.36 70.81,-124.57 170.76,-209.47 286.99,-216.05l0 -0.41c-18.92,-28.13 -28.32,-60.81 -28.22,-93.5z"/>
  <path class="fil0" d="M908.75 483.86c-41.78,-142.79 -164.99,-221.52 -313.9,-260.68 1.82,1.01 3.64,2.12 5.36,3.03 124.02,70.44 208.39,170.01 215.07,285.68l0.4 0c27.92,-18.93 60.5,-28.24 93.07,-28.03l0 0z"/>
 </g>
</svg>
