<?xml version="1.0" encoding="UTF-8"?>
<!DOCTYPE svg PUBLIC "-//W3C//DTD SVG 1.1//EN" "http://www.w3.org/Graphics/SVG/1.1/DTD/svg11.dtd">
<!-- Creator: CorelDRAW 2021 (64-Bit) -->
<svg xmlns="http://www.w3.org/2000/svg" xml:space="preserve" width="64px" height="64px" version="1.1" style="shape-rendering:geometricPrecision; text-rendering:geometricPrecision; image-rendering:optimizeQuality; fill-rule:evenodd; clip-rule:evenodd"
viewBox="0 0 67.87 67.87"
 xmlns:xlink="http://www.w3.org/1999/xlink"
 xmlns:xodm="http://www.corel.com/coreldraw/odm/2003">
 <defs>
  <style type="text/css">
   <![CDATA[
    .fil5 {fill:#1C83B4}
    .fil10 {fill:#359AD5}
    .fil1 {fill:#4FADE1}
    .fil6 {fill:#759A49}
    .fil11 {fill:#88AD4A}
    .fil2 {fill:#9CC54A}
    .fil4 {fill:#A8833D}
    .fil8 {fill:#C7393B}
    .fil0 {fill:#DC3B42}
    .fil9 {fill:#E1A838}
    .fil7 {fill:#EF4E46}
    .fil3 {fill:#EFBB33}
   ]]>
  </style>
 </defs>
 <g id="Layer_x0020_1">
  <metadata id="CorelCorpID_0Corel-Layer"/>
  <path class="fil0" d="M45.77 23.66c0,1.45 -0.18,2.95 -0.52,4.49 -2.26,-0.51 -5.44,-0.98 -9.48,-0.98 -1.96,0 -4.62,0.21 -6.26,0.5 0.37,0.91 0.83,1.91 1.39,3 1.45,-0.19 3.41,-0.32 4.87,-0.32 3.66,0 6.54,0.41 8.6,0.86 -0.73,2.1 -1.76,4.29 -3.1,6.6 -1.38,2.41 -3.49,5.57 -5.1,7.31 0.47,0.37 1.79,1.35 2.5,1.65 1.77,-1.92 3.85,-4.76 5.35,-7.37 2.99,-5.17 4.59,-9.88 4.88,-14.31 -0.96,-0.65 -2.4,-1.21 -3.13,-1.43l0 0z"/>
  <path class="fil1" d="M38.59 38.36c0.98,-1.69 2.13,-4.11 2.7,-5.67 -0.98,-0.13 -2.08,-0.24 -3.3,-0.3 -0.56,1.36 -1.42,3.11 -2.16,4.38 -1.83,3.18 -3.62,5.46 -5.04,7.02 -1.45,-1.69 -2.83,-3.67 -4.16,-5.99 -1.39,-2.39 -3.08,-5.8 -3.78,-8.07 -0.57,0.23 -2.06,0.88 -2.68,1.35 0.78,2.48 2.2,5.71 3.7,8.32 2.98,5.17 6.26,8.91 9.95,11.37 1.05,-0.5 2.25,-1.47 2.81,-2 -1.26,-0.72 -2.47,-1.62 -3.64,-2.69 1.57,-1.69 3.58,-4.21 5.6,-7.72l0 0z"/>
  <path class="fil2" d="M27.49 35.2c0.98,1.7 2.49,3.9 3.56,5.18 0.61,-0.78 1.25,-1.68 1.91,-2.7 -0.89,-1.17 -1.98,-2.8 -2.72,-4.07 -1.83,-3.17 -2.91,-5.87 -3.55,-7.88 2.18,-0.41 4.6,-0.61 7.26,-0.61 2.78,0 6.57,0.25 8.88,0.76 0.08,-0.59 0.27,-2.22 0.18,-2.99 -2.54,-0.57 -6.05,-0.95 -9.06,-0.95 -5.97,0 -10.84,0.96 -14.82,2.93 -0.09,1.16 0.15,2.69 0.32,3.43 1.26,-0.73 2.64,-1.33 4.15,-1.8 0.69,2.21 1.86,5.2 3.89,8.7l0 0z"/>
  <path class="fil3" d="M65.56 37.46c-3.08,-3.08 -8.08,-3.08 -11.16,0 -0.43,0.43 -0.8,0.9 -1.11,1.39 -0.13,0.24 -0.27,0.48 -0.4,0.72 -4.67,8.23 -11.28,13.83 -18.95,14.27l0 0.02c2.48,3.69 2.48,8.55 0,12.24 -0.29,0.42 -0.61,0.83 -0.96,1.22 11.02,-2.32 18.07,-9.46 21.6,-18.54 2.1,1.98 5.01,2.59 7.61,1.84 0.29,-0.09 0.57,-0.19 0.85,-0.31 0.92,-0.38 1.78,-0.95 2.52,-1.69 2.92,-2.92 3.07,-7.54 0.48,-10.64 -0.15,-0.18 -0.31,-0.36 -0.48,-0.52l0 0z"/>
  <path class="fil4" d="M54.58 48.78c2.1,1.98 5.01,2.59 7.61,1.84 0.29,-0.09 0.57,-0.19 0.85,-0.31 0.92,-0.38 1.78,-0.95 2.52,-1.69 2.92,-2.92 3.07,-7.54 0.48,-10.64 -0.15,-0.18 -0.31,-0.36 -0.48,-0.52 -1.07,-1.07 -2.37,-1.77 -3.74,-2.1 2.39,0.66 4.09,2.79 4.19,5.28 0.09,2.48 -1.43,4.74 -3.77,5.58 -2.34,0.83 -4.95,0.06 -6.46,-1.92 -0.55,2.13 -0.59,2.33 -1.2,4.48l0 0z"/>
  <path class="fil1" d="M30.41 65.56c3.08,-3.08 3.08,-8.07 0,-11.16 -0.42,-0.43 -0.9,-0.8 -1.38,-1.11 -0.25,-0.13 -0.49,-0.26 -0.73,-0.4 -8.23,-4.67 -13.83,-11.28 -14.26,-18.96l-0.03 0c-3.68,2.49 -8.55,2.49 -12.24,0 -0.42,-0.28 -0.83,-0.6 -1.22,-0.94 2.33,11.01 9.46,18.06 18.53,21.59 -1.97,2.1 -2.58,5.01 -1.82,7.61 0.08,0.29 0.19,0.58 0.3,0.86 0.39,0.91 0.95,1.77 1.7,2.51 2.91,2.91 7.53,3.07 10.63,0.47 0.18,-0.14 0.36,-0.3 0.53,-0.47l-0.01 0z"/>
  <path class="fil5" d="M19.08 54.58c-1.97,2.1 -2.58,5.01 -1.82,7.61 0.08,0.29 0.19,0.58 0.3,0.86 0.39,0.91 0.95,1.77 1.7,2.51 2.91,2.91 7.53,3.07 10.63,0.47 0.18,-0.14 0.36,-0.3 0.53,-0.47 1.06,-1.07 1.77,-2.37 2.09,-3.74 -0.66,2.4 -2.79,4.09 -5.27,4.19 -2.49,0.09 -4.75,-1.43 -5.58,-3.77 -0.84,-2.34 -0.06,-4.95 1.91,-6.46 -2.13,-0.55 -2.33,-0.59 -4.49,-1.2l0 0z"/>
  <path class="fil2" d="M2.31 30.41c3.08,3.08 8.08,3.08 11.16,0 0.43,-0.43 0.8,-0.89 1.11,-1.39 0.13,-0.24 0.27,-0.48 0.4,-0.71 4.68,-8.23 11.28,-13.84 18.96,-14.27l0 -0.03c-2.49,-3.69 -2.49,-8.55 0,-12.23 0.28,-0.43 0.6,-0.83 0.94,-1.22 -11.01,2.31 -18.06,9.46 -21.58,18.53 -2.1,-1.98 -5.01,-2.59 -7.62,-1.83 -0.29,0.08 -0.57,0.19 -0.85,0.3 -0.92,0.39 -1.77,0.95 -2.52,1.7 -2.91,2.91 -3.07,7.54 -0.47,10.64 0.15,0.17 0.3,0.35 0.47,0.51l0 0z"/>
  <path class="fil6" d="M13.3 19.09c-2.1,-1.98 -5.01,-2.59 -7.62,-1.83 -0.29,0.08 -0.57,0.19 -0.85,0.3 -0.92,0.39 -1.77,0.95 -2.52,1.7 -2.91,2.91 -3.07,7.54 -0.47,10.64 0.15,0.17 0.3,0.35 0.47,0.51 1.07,1.07 2.37,1.77 3.74,2.1 -2.39,-0.65 -4.09,-2.79 -4.19,-5.27 -0.09,-2.49 1.43,-4.75 3.78,-5.58 2.33,-0.84 4.95,-0.06 6.45,1.92 0.55,-2.14 0.59,-2.34 1.21,-4.49l0 0z"/>
  <path class="fil7" d="M37.46 2.32c-3.08,3.08 -3.08,8.07 0,11.15 0.43,0.44 0.9,0.8 1.39,1.12 0.24,0.12 0.48,0.26 0.72,0.39 8.23,4.68 13.83,11.28 14.27,18.96l0.02 0c3.69,-2.48 8.55,-2.48 12.24,0 0.43,0.28 0.83,0.6 1.22,0.95 -2.32,-11.01 -9.46,-18.07 -18.53,-21.59 1.97,-2.1 2.58,-5.02 1.83,-7.61 -0.09,-0.3 -0.2,-0.59 -0.31,-0.86 -0.39,-0.92 -0.95,-1.77 -1.69,-2.51 -2.92,-2.92 -7.54,-3.08 -10.64,-0.48 -0.18,0.15 -0.36,0.31 -0.52,0.48l0 0z"/>
  <path class="fil8" d="M48.79 13.3c1.97,-2.1 2.58,-5.02 1.83,-7.61 -0.09,-0.3 -0.2,-0.59 -0.31,-0.86 -0.39,-0.92 -0.95,-1.77 -1.69,-2.51 -2.92,-2.92 -7.54,-3.08 -10.64,-0.48 -0.18,0.15 -0.36,0.31 -0.52,0.48 -1.07,1.07 -1.77,2.36 -2.1,3.74 0.66,-2.4 2.79,-4.1 5.28,-4.19 2.48,-0.1 4.74,1.43 5.58,3.77 0.83,2.34 0.06,4.95 -1.92,6.45 2.13,0.55 2.33,0.6 4.49,1.21l0 0z"/>
  <path class="fil9" d="M35.8 60.04c9.47,-2.78 14.7,-10.95 17.29,-20.83 -0.07,0.12 -0.13,0.24 -0.2,0.36 -4.67,8.23 -11.28,13.83 -18.95,14.27l0 0.02c1.25,1.86 1.87,4.02 1.86,6.18z"/>
  <path class="fil10" d="M7.84 35.8c2.77,9.47 10.94,14.7 20.82,17.3 -0.12,-0.07 -0.24,-0.14 -0.36,-0.21 -8.23,-4.67 -13.83,-11.28 -14.26,-18.95l-0.03 0c-1.86,1.25 -4.02,1.87 -6.17,1.86z"/>
  <path class="fil11" d="M32.07 7.84c-9.47,2.77 -14.7,10.94 -17.29,20.82 0.07,-0.12 0.14,-0.24 0.2,-0.35 4.68,-8.23 11.28,-13.84 18.96,-14.27l0 -0.03c-1.25,-1.86 -1.87,-4.01 -1.87,-6.17z"/>
  <path class="fil0" d="M60.02 31.96c-2.76,-9.43 -10.9,-14.63 -20.73,-17.22 0.12,0.07 0.24,0.14 0.35,0.2 8.19,4.65 13.76,11.23 14.2,18.87l0.03 0c1.85,-1.25 4,-1.87 6.15,-1.85l0 0z"/>
 </g>
</svg>
