<?xml version="1.0" encoding="UTF-8"?>
<!DOCTYPE svg PUBLIC "-//W3C//DTD SVG 1.1//EN" "http://www.w3.org/Graphics/SVG/1.1/DTD/svg11.dtd">
<!-- Creator: CorelDRAW 2021 (64-Bit) -->
<svg xmlns="http://www.w3.org/2000/svg" xml:space="preserve" width="128px" height="128px" version="1.1" style="shape-rendering:geometricPrecision; text-rendering:geometricPrecision; image-rendering:optimizeQuality; fill-rule:evenodd; clip-rule:evenodd"
viewBox="0 0 131.76 131.76"
 xmlns:xlink="http://www.w3.org/1999/xlink"
 xmlns:xodm="http://www.corel.com/coreldraw/odm/2003">
 <defs>
  <style type="text/css">
   <![CDATA[
    .fil5 {fill:#1C83B4}
    .fil10 {fill:#359AD5}
    .fil1 {fill:#4FADE1}
    .fil6 {fill:#759A49}
    .fil11 {fill:#88AD4A}
    .fil2 {fill:#9CC54A}
    .fil4 {fill:#A8833D}
    .fil8 {fill:#C7393B}
    .fil0 {fill:#DC3B42}
    .fil9 {fill:#E1A838}
    .fil7 {fill:#EF4E46}
    .fil3 {fill:#EFBB33}
   ]]>
  </style>
 </defs>
 <g id="Layer_x0020_1">
  <metadata id="CorelCorpID_0Corel-Layer"/>
  <path class="fil0" d="M88.85 45.93c0,2.82 -0.34,5.73 -1,8.72 -4.39,-1 -10.56,-1.9 -18.41,-1.9 -3.8,0 -8.97,0.4 -12.16,0.96 0.72,1.77 1.62,3.72 2.7,5.82 2.82,-0.36 6.62,-0.62 9.46,-0.62 7.11,0 12.7,0.8 16.7,1.69 -1.43,4.06 -3.43,8.31 -6.02,12.8 -2.69,4.67 -6.78,10.81 -9.9,14.19 0.91,0.72 3.48,2.61 4.85,3.2 3.43,-3.71 7.47,-9.24 10.39,-14.3 5.8,-10.04 8.91,-19.18 9.47,-27.78 -1.87,-1.27 -4.67,-2.36 -6.08,-2.78l0 0z"/>
  <path class="fil1" d="M74.91 74.47c1.9,-3.29 4.13,-7.98 5.25,-11.02 -1.91,-0.25 -4.05,-0.45 -6.41,-0.57 -1.09,2.63 -2.76,6.05 -4.19,8.5 -3.55,6.17 -7.04,10.61 -9.79,13.63 -2.82,-3.28 -5.5,-7.13 -8.08,-11.62 -2.7,-4.66 -5.97,-11.28 -7.34,-15.67 -1.09,0.44 -4,1.71 -5.2,2.62 1.52,4.81 4.28,11.08 7.2,16.14 5.78,10.04 12.14,17.3 19.31,22.08 2.03,-0.98 4.37,-2.86 5.45,-3.88 -2.44,-1.4 -4.79,-3.14 -7.06,-5.22 3.05,-3.29 6.94,-8.18 10.86,-15l0 0.01z"/>
  <path class="fil2" d="M53.36 68.34c1.91,3.3 4.84,7.56 6.91,10.06 1.19,-1.52 2.43,-3.27 3.72,-5.26 -1.74,-2.27 -3.86,-5.42 -5.28,-7.89 -3.56,-6.16 -5.66,-11.4 -6.9,-15.29 4.24,-0.81 8.93,-1.2 14.1,-1.2 5.39,0 12.76,0.48 17.24,1.48 0.16,-1.15 0.51,-4.31 0.34,-5.81 -4.93,-1.1 -11.74,-1.84 -17.58,-1.84 -11.59,0 -21.04,1.87 -28.77,5.69 -0.17,2.25 0.28,5.22 0.62,6.66 2.45,-1.41 5.12,-2.58 8.05,-3.5 1.34,4.29 3.62,10.1 7.55,16.9l0 0z"/>
  <path class="fil3" d="M127.28 72.71c-5.99,-5.98 -15.7,-5.98 -21.67,0 -0.84,0.85 -1.56,1.76 -2.16,2.71 -0.24,0.47 -0.52,0.94 -0.78,1.39 -9.06,15.97 -21.89,26.85 -36.79,27.7l0 0.05c4.82,7.15 4.82,16.6 0,23.76 -0.56,0.82 -1.17,1.61 -1.86,2.36 21.39,-4.5 35.09,-18.36 41.93,-35.98 4.08,3.85 9.73,5.03 14.78,3.56 0.57,-0.17 1.11,-0.36 1.66,-0.6 1.77,-0.74 3.43,-1.84 4.89,-3.28 5.65,-5.66 5.95,-14.63 0.92,-20.65 -0.29,-0.36 -0.6,-0.69 -0.92,-1.02l0 0z"/>
  <path class="fil4" d="M105.96 94.7c4.07,3.85 9.72,5.03 14.77,3.56 0.57,-0.17 1.11,-0.36 1.66,-0.6 1.77,-0.74 3.43,-1.84 4.89,-3.28 5.65,-5.66 5.95,-14.63 0.92,-20.65 -0.29,-0.36 -0.6,-0.69 -0.92,-1.02 -2.09,-2.07 -4.61,-3.42 -7.27,-4.06 4.65,1.27 7.94,5.41 8.14,10.24 0.18,4.81 -2.78,9.2 -7.33,10.83 -4.54,1.62 -9.61,0.12 -12.53,-3.72 -1.06,4.14 -1.16,4.53 -2.34,8.7l0.01 0z"/>
  <path class="fil1" d="M59.04 127.27c5.98,-5.98 5.98,-15.67 0,-21.67 -0.83,-0.83 -1.75,-1.54 -2.69,-2.15 -0.48,-0.26 -0.95,-0.51 -1.41,-0.78 -15.97,-9.07 -26.84,-21.89 -27.69,-36.79l-0.05 0c-7.16,4.82 -16.6,4.82 -23.76,0 -0.83,-0.55 -1.62,-1.17 -2.37,-1.85 4.51,21.38 18.36,35.07 35.98,41.92 -3.84,4.08 -5.02,9.73 -3.54,14.78 0.15,0.56 0.36,1.12 0.58,1.66 0.75,1.78 1.84,3.44 3.29,4.88 5.66,5.66 14.63,5.97 20.65,0.92 0.35,-0.28 0.69,-0.6 1.01,-0.92l0 0z"/>
  <path class="fil5" d="M37.05 105.95c-3.84,4.08 -5.02,9.73 -3.54,14.78 0.15,0.56 0.36,1.12 0.58,1.66 0.75,1.78 1.84,3.44 3.29,4.88 5.66,5.66 14.63,5.97 20.65,0.92 0.35,-0.28 0.69,-0.6 1.01,-0.92 2.08,-2.08 3.44,-4.61 4.08,-7.27 -1.29,4.66 -5.43,7.96 -10.25,8.14 -4.82,0.18 -9.21,-2.78 -10.83,-7.32 -1.62,-4.54 -0.12,-9.61 3.72,-12.53 -4.14,-1.07 -4.52,-1.16 -8.71,-2.34l0 0z"/>
  <path class="fil2" d="M4.49 59.04c5.98,5.98 15.68,5.98 21.66,0 0.83,-0.83 1.56,-1.74 2.15,-2.7 0.26,-0.47 0.52,-0.93 0.78,-1.39 9.08,-15.97 21.9,-26.85 36.8,-27.7l0 -0.05c-4.83,-7.16 -4.83,-16.59 0,-23.75 0.56,-0.82 1.17,-1.61 1.84,-2.37 -21.37,4.49 -35.07,18.36 -41.91,35.97 -4.07,-3.83 -9.72,-5.01 -14.78,-3.54 -0.56,0.15 -1.12,0.36 -1.66,0.58 -1.78,0.75 -3.44,1.84 -4.88,3.3 -5.67,5.65 -5.96,14.63 -0.92,20.65 0.29,0.34 0.59,0.67 0.92,1l0 0z"/>
  <path class="fil6" d="M25.81 37.05c-4.07,-3.83 -9.72,-5.01 -14.78,-3.54 -0.56,0.15 -1.12,0.36 -1.66,0.58 -1.78,0.75 -3.44,1.84 -4.88,3.3 -5.67,5.65 -5.96,14.63 -0.92,20.65 0.29,0.34 0.59,0.67 0.92,1 2.08,2.07 4.59,3.44 7.25,4.07 -4.64,-1.27 -7.94,-5.41 -8.13,-10.23 -0.18,-4.83 2.78,-9.22 7.33,-10.84 4.54,-1.63 9.61,-0.11 12.53,3.73 1.06,-4.14 1.15,-4.53 2.34,-8.72l0 0z"/>
  <path class="fil7" d="M72.71 4.5c-5.98,5.98 -5.98,15.67 0,21.65 0.85,0.84 1.75,1.56 2.71,2.17 0.47,0.24 0.94,0.5 1.39,0.76 15.98,9.08 26.85,21.9 27.7,36.8l0.06 0c7.14,-4.82 16.59,-4.82 23.74,0 0.84,0.55 1.63,1.16 2.38,1.85 -4.5,-21.38 -18.37,-35.08 -35.98,-41.92 3.84,-4.07 5.02,-9.73 3.55,-14.78 -0.16,-0.57 -0.37,-1.12 -0.59,-1.66 -0.76,-1.77 -1.84,-3.43 -3.28,-4.87 -5.67,-5.67 -14.65,-5.97 -20.66,-0.94 -0.36,0.3 -0.69,0.61 -1.02,0.94l0 0z"/>
  <path class="fil8" d="M94.71 25.81c3.84,-4.07 5.02,-9.73 3.55,-14.78 -0.16,-0.57 -0.37,-1.12 -0.59,-1.66 -0.76,-1.77 -1.84,-3.43 -3.28,-4.87 -5.67,-5.67 -14.65,-5.97 -20.66,-0.94 -0.36,0.3 -0.69,0.61 -1.02,0.94 -2.07,2.07 -3.42,4.59 -4.07,7.26 1.28,-4.66 5.42,-7.95 10.25,-8.13 4.82,-0.2 9.21,2.77 10.83,7.31 1.62,4.55 0.13,9.62 -3.73,12.54 4.14,1.06 4.53,1.15 8.72,2.33l0 0z"/>
  <path class="fil9" d="M69.5 116.55c18.39,-5.39 28.53,-21.26 33.56,-40.44 -0.13,0.24 -0.26,0.47 -0.39,0.7 -9.06,15.97 -21.89,26.85 -36.79,27.7l0 0.05c2.42,3.61 3.63,7.8 3.62,11.99z"/>
  <path class="fil10" d="M15.22 69.5c5.38,18.38 21.24,28.53 40.43,33.57 -0.24,-0.13 -0.47,-0.26 -0.71,-0.4 -15.97,-9.07 -26.84,-21.89 -27.69,-36.79l-0.05 0c-3.62,2.44 -7.81,3.64 -11.98,3.62z"/>
  <path class="fil11" d="M62.26 15.21c-18.38,5.39 -28.53,21.25 -33.58,40.43 0.14,-0.23 0.27,-0.47 0.4,-0.69 9.08,-15.97 21.9,-26.85 36.8,-27.7l0 -0.05c-2.43,-3.61 -3.63,-7.8 -3.62,-11.99z"/>
  <path class="fil0" d="M116.51 62.04c-5.35,-18.31 -21.15,-28.4 -40.24,-33.43 0.23,0.13 0.46,0.28 0.68,0.39 15.91,9.03 26.72,21.8 27.58,36.63l0.05 0c3.58,-2.43 7.76,-3.62 11.93,-3.59l0 0z"/>
 </g>
</svg>
